<svg width="701" height="648" viewBox="0 0 701 648" fill="none" xmlns="http://www.w3.org/2000/svg">
<path d="M543.882 151.724C558.276 151.248 568.187 157.247 581.753 160.056C605.291 164.929 627.016 160.768 647.944 176.214C677.657 198.157 691.732 242.152 697.161 277.128C710.21 361.161 684.431 453.994 634.487 522.105C590.569 582.002 523.631 633.85 448.576 645.319C424.978 648.925 402.08 646.761 379.204 640.175C348.175 631.244 318.871 616.275 289.801 602.473C267.039 591.661 244.055 581.318 220.865 571.454C194.07 560.184 167.098 549.343 139.958 538.932C112.975 528.444 79.1754 518.47 56.0644 501.216C43.3534 491.728 34.2534 479.241 31.9764 463.25C29.1074 443.087 37.4094 424.556 49.1654 408.735L50.3094 407.394C62.5304 393.187 78.4624 381.03 97.8164 379.792C108.972 379.077 119.643 382.375 128.026 389.871C138.174 398.945 143.253 412.206 143.806 425.625C144.564 444.071 136.554 464.504 121.56 475.692C115.454 480.249 108.163 483.859 102.97 489.473C102.386 492.046 102.607 492.372 103.489 494.741C105.018 496.05 106.389 496.826 108.394 497.205C119.731 499.352 133.954 493.175 143.201 487.104C152.949 480.704 160.792 472.63 163.274 460.997C172.553 472.42 183.277 482.9 194.105 492.843C237.707 532.889 325.933 600.274 378.898 620.377C390.324 624.713 402.442 627.549 414.729 626.935C450.907 625.126 496.976 569.208 520.265 543.076C520.275 541.798 520.304 540.521 520.334 539.243C522.127 480.891 528.064 399.745 548.823 345.361C555.526 327.564 564.989 310.933 576.853 296.074C581.514 290.283 586.794 284.354 593.089 280.312C597.243 277.648 602.263 275.449 605.749 271.948C608.618 269.078 609.385 266.432 609.475 262.467C607.811 260.697 607.333 260.318 605.012 259.645C600.62 258.369 595.191 258.817 590.609 258.199C578.845 256.615 564.76 251.007 554.66 245.065C538.274 235.415 525.474 220.412 520.673 201.784C517.705 190.252 517.794 175.302 524.159 164.848C528.891 157.076 535.306 153.819 543.882 151.724Z" fill="#E01514"/>
<path d="M210.707 0.392395C275.104 -5.7816 315.82 62.5464 367.982 88.4634C374.575 84.9374 380.96 80.9234 387.479 77.2474C430.258 53.1214 478.897 43.7324 526.769 57.2354C576.594 71.2884 611.497 104.884 636.32 149.268C622.315 139.442 609.684 137.133 592.93 137.604C574.761 108.133 549.969 92.7824 517.765 82.3374C497.146 76.7324 475.491 76.0974 454.583 80.4864C408.661 90.0394 372.651 116.511 347.219 155.41C331.393 135.721 310.264 121.541 287.642 110.797C291.478 106.413 295.189 101.903 297.749 96.6324C303.383 85.0314 304.981 69.8024 300.552 57.5214C298.644 52.2334 295.212 47.4804 290.033 45.0374C287.199 45.2594 286.779 45.5344 284.47 47.2294C283.647 48.9384 283.305 50.0154 283.588 51.9384C284.3 56.7734 287.899 58.8564 291.564 61.4754C289.221 69.9664 286.284 77.2834 281.328 84.6444C269.967 101.856 252.136 113.751 231.88 117.631C215.628 120.801 197.972 119.019 184.122 109.372C172.013 100.937 166.265 88.0824 163.88 73.8604C160.9 56.1054 162.733 36.3744 173.546 21.4294C182.686 8.7984 195.641 2.7704 210.707 0.392395Z" fill="#E01514"/>
<path d="M434.713 389.824C418.423 380.994 401.323 372.964 385.443 363.474C384.473 357.714 383.083 339.734 379.573 336.114C376.433 342.154 374.103 348.874 371.293 355.094C364.083 371.094 355.943 386.484 345.033 400.284C348.173 383.784 351.563 366.154 352.303 349.384C360.593 344.064 369.273 339.324 377.833 334.444L377.843 333.084C349.403 329.244 333.583 335.664 304.833 321.584C321.933 320.494 340.513 316.784 357.123 312.614C364.693 318.474 371.993 324.714 379.623 330.474C373.693 306.414 367.573 283.564 368.243 258.574C376.453 273.824 384.403 289.494 393.433 304.264C389.453 313.504 385.323 322.684 381.043 331.784C402.153 319.864 424.133 309.574 446.813 301.024C434.823 313.564 422.603 326.094 411.493 339.424C401.263 337.204 390.763 335.334 380.753 332.234C400.183 349.324 418.623 369.614 434.713 389.824Z" fill="#E01514"/>
<path d="M444.083 399.174C427.803 392.274 411.903 382.354 396.333 373.934L384.893 367.784C369.143 382.394 353.643 397.114 338.723 412.584C343.623 391.794 345.863 370.304 350.013 349.324C331.223 338.884 311.813 330.054 292.613 320.464C313.353 315.394 335.543 313.174 356.673 309.814C361.043 289.044 363.093 267.774 366.113 246.794C369.873 249.464 392.283 295.914 396.313 303.814C417.253 301.164 440.093 299.084 460.253 292.804C444.643 308.324 429.353 324.154 414.393 340.294C423.783 360.064 432.763 380.434 444.083 399.174ZM483.443 280.404C456.283 284.494 428.653 288.184 401.733 293.534C396.613 283.814 366.973 224.164 362.013 219.884C358.653 246.774 354.263 274.444 348.833 301.004C321.973 305.704 294.753 309.694 268.143 315.594C291.613 329.014 315.393 341.904 339.453 354.244C335.313 381.014 332.273 408.434 326.753 434.924C346.643 416.104 367.403 398.234 387.503 379.644L403.013 388.104C422.983 398.494 443.773 407.974 463.383 418.964C449.853 393.924 438.653 367.704 426.063 342.204C445.583 321.934 464.193 300.904 483.443 280.404Z" fill="#E01514"/>
<path d="M434.713 389.824C418.423 380.994 401.323 372.964 385.443 363.474C384.473 357.714 383.083 339.734 379.573 336.114C376.433 342.154 374.103 348.874 371.293 355.094C364.083 371.094 355.943 386.484 345.033 400.284C348.173 383.784 351.563 366.154 352.303 349.384C360.593 344.064 369.273 339.324 377.833 334.444L377.843 333.084C349.403 329.244 333.583 335.664 304.833 321.584C321.933 320.494 340.513 316.784 357.123 312.614C364.693 318.474 371.993 324.714 379.623 330.474C373.693 306.414 367.573 283.564 368.243 258.574C376.453 273.824 384.403 289.494 393.433 304.264C389.453 313.504 385.323 322.684 381.043 331.784C402.153 319.864 424.133 309.574 446.813 301.024C434.823 313.564 422.603 326.094 411.493 339.424C401.263 337.204 390.763 335.334 380.753 332.234C400.183 349.324 418.623 369.614 434.713 389.824Z" fill="#FCFCFC"/>
<path d="M434.713 389.824C418.423 380.994 401.323 372.964 385.443 363.474C384.473 357.714 383.083 339.734 379.573 336.114C376.433 342.154 374.103 348.874 371.293 355.094C364.083 371.094 355.943 386.484 345.033 400.284C348.173 383.784 351.563 366.154 352.303 349.384C360.593 344.064 369.273 339.324 377.833 334.444L377.843 333.084C349.403 329.244 333.583 335.664 304.833 321.584C321.933 320.494 340.513 316.784 357.123 312.614C364.693 318.474 371.993 324.714 379.623 330.474C373.693 306.414 367.573 283.564 368.243 258.574C376.453 273.824 384.403 289.494 393.433 304.264C389.453 313.504 385.323 322.684 381.043 331.784C402.153 319.864 424.133 309.574 446.813 301.024C434.823 313.564 422.603 326.094 411.493 339.424C401.263 337.204 390.763 335.334 380.753 332.234C400.183 349.324 418.623 369.614 434.713 389.824Z" fill="#E01514"/>
<path d="M121.418 107.126C121.759 107.098 122.099 107.062 122.442 107.044C136.837 106.271 155.86 108.295 166.846 118.661C177.616 128.824 180.078 145.95 180.283 159.998C180.635 184.072 173.974 212.217 156.708 229.779C144.747 241.944 131.479 245.36 114.961 245.454C102.34 244.483 90.1169 238.963 80.5799 230.725C64.9219 217.198 55.6469 195.728 54.3879 175.277C53.3559 158.506 57.6219 141.132 68.9579 128.369C82.5529 113.059 101.786 108.407 121.418 107.126Z" fill="#E01514"/>
<path d="M52.6505 243.561C69.0925 242.253 87.0005 245.338 102.095 251.802C112.835 256.4 122.533 263.858 126.916 275.008C131.501 286.666 129.501 300.171 124.598 311.387C115.045 333.239 93.2215 351.661 69.0145 353.678C63.3365 354.15 53.7385 352.562 48.7265 354.755C47.1805 355.431 47.3975 355.848 46.7785 357.313C47.3775 360.277 48.5735 361.795 50.4655 364.112C56.6815 368.117 63.6265 366.3 69.4865 370.003L69.6865 371.803C66.7415 374.54 62.6625 376.599 58.6275 377.048C50.0205 378.004 41.4375 372.553 34.9765 367.495C16.2835 352.858 3.31948 331.189 0.565481 307.483C-1.27152 291.68 1.11348 274.399 11.4805 261.764C21.9285 249.032 36.9255 245 52.6505 243.561Z" fill="#E01514"/>
<path d="M257.309 175.64C260.749 175.196 265.346 174.361 268.389 176.441C270.06 177.583 269.874 178.155 270.104 180.017C266.618 184.654 250.443 191.78 244.825 195.641C238.419 200.136 232.36 205.105 226.698 210.506C198.355 237.6 180.306 274.071 179.436 313.513C177.895 383.375 226.615 445.321 275.331 490.401C288.809 502.873 305.099 513.343 317.703 526.472L317.359 527.291L314.484 526.147C251.676 484.302 180.376 422.438 162.475 345.515C153.506 306.971 159.087 263.843 180.451 230.209C197.292 203.695 226.635 182.495 257.309 175.64Z" fill="#E01514"/>
</svg>
